<?xml version="1.0" encoding="utf-8"?>
<!-- Generator: Adobe Illustrator 22.0.0, SVG Export Plug-In . SVG Version: 6.00 Build 0)  -->
<svg version="1.1" id="图层_1" xmlns="http://www.w3.org/2000/svg" xmlns:xlink="http://www.w3.org/1999/xlink" x="0px" y="0px"
	 viewBox="0 0 205 85" style="enable-background:new 0 0 205 85;" xml:space="preserve">
<style type="text/css">
	.st0{fill:#FEFEFE;}
	.st1{filter:url(#Adobe_OpacityMaskFilter);}
	.st2{fill:#FFFFFF;}
	.st3{mask:url(#mask-2_1_);fill:#3AB37B;}
	.st4{fill:#3AB37B;}
	.st5{fill:#EFB8D0;}
	.st6{font-family:'STYuanti-TC-Bold';}
	.st7{font-size:30px;}
	.st8{font-family:'STYuanti-TC-Regular';}
	.st9{font-size:16px;}
</style>
<title>Page 1</title>
<desc>Created with Sketch.</desc>
<g id="Page-1_1_">
	<g id="_x31_馒头留学-首页" transform="translate(-360.000000, -5.000000)">
		<g id="Page-1" transform="translate(360.000000, 5.000000)">
			<path id="Fill-1" class="st0" d="M39.8,19.5c-0.7,0-1.4,0-2.2,0.1c-1.2,0.1-2.5,0.2-3.7,0.4c-0.4-0.6-2-3-5.1-4.5
				c-1.3-0.7-2.6-1-3.7-1.1c-1.9-0.1-3.6,0.5-4.2,1.5c-0.1,0.1-0.1,0.2-0.1,0.2c0.2,0.4,1.1,1,2.2,1.5c1.1,0.7,3.3,2.2,4.2,4.3
				c-1.7,0.6-3.4,1.4-5,2.3h0C13.4,28.8,8.2,36.4,7.8,44.9c-0.5,10.5,4.9,16.7,9.5,19.9c9.3,6.6,23.8,7.9,35.2,3.3
				C63.6,63.7,70,52.6,68.1,41.4C66.3,30.6,56.7,19.5,39.8,19.5"/>
			<g id="Group-5" transform="translate(0.000000, 0.155532)">
				<g id="Clip-4">
				</g>
				<defs>
					<filter id="Adobe_OpacityMaskFilter" filterUnits="userSpaceOnUse" x="2.7" y="9" width="70.9" height="66.8">
						<feColorMatrix  type="matrix" values="1 0 0 0 0  0 1 0 0 0  0 0 1 0 0  0 0 0 1 0"/>
					</filter>
				</defs>
				<mask maskUnits="userSpaceOnUse" x="2.7" y="9" width="70.9" height="66.8" id="mask-2_1_">
					<g class="st1">
						<polygon id="path-1_1_" class="st2" points="2.7,9 73.6,9 73.6,75.8 2.7,75.8 						"/>
					</g>
				</mask>
				<path id="Fill-3" class="st3" d="M52.6,68c-11.5,4.7-26,3.3-35.2-3.3c-4.6-3.3-10-9.4-9.5-19.9c0.4-8.6,5.6-16.2,14.2-20.9h0
					c1.6-0.9,3.3-1.6,5-2.3c-0.9-2-3.1-3.6-4.2-4.3c-1-0.5-2-1.1-2.2-1.5c0,0,0-0.1,0.1-0.2c0.6-1,2.3-1.6,4.2-1.5
					c1.1,0.1,2.5,0.4,3.7,1.1c3.2,1.5,4.7,3.9,5.1,4.5c1.3-0.2,2.5-0.3,3.7-0.4c0.7,0,1.5-0.1,2.2-0.1c16.9,0,26.5,11.1,28.3,21.9
					C70,52.5,63.6,63.5,52.6,68 M60.3,20.3c-6.4-4.4-14.6-6.5-23-6.1c-0.6,0-1.3,0.1-1.9,0.2c-2.3-3.1-6-5.1-10.1-5.3
					c-3.9-0.2-7.2,1.2-8.8,3.8c-1,1.5-1.2,3.2-0.6,4.7c0.4,1.1,1.2,2,2,2.7C8.7,26,3.2,34.7,2.7,44.6C2.3,54.7,6.3,63.2,14.4,68.9
					c6.4,4.6,15,7,23.7,7c5.6,0,11.3-1,16.4-3.1c13.3-5.4,21-18.7,18.7-32.4C71.8,32,67.3,25.1,60.3,20.3"/>
			</g>
			<path id="Fill-6" class="st4" d="M27.2,52.4c-0.3,0-0.5,0-0.7-0.1c-1-0.4-1.6-1.6-1.2-2.6c0.1-0.3,1.3-3.3,4.3-4.2
				c2-0.6,4.2,0,6.5,1.7c0.9,0.7,1.1,2,0.4,2.9c-0.7,0.9-2,1.1-2.9,0.4c-0.8-0.6-2-1.3-2.9-1c-1,0.3-1.6,1.7-1.7,1.7
				C28.7,51.9,28,52.4,27.2,52.4"/>
			<path id="Fill-8" class="st4" d="M44.4,50.8c-0.2,0-0.4,0-0.6-0.1c-1.1-0.3-1.7-1.5-1.3-2.5c0.1-0.3,1.1-3.3,3.9-4.3
				c2.1-0.7,4.4-0.1,6.9,1.7c0.9,0.7,1.1,1.9,0.5,2.9c-0.7,0.9-1.9,1.1-2.9,0.5c-1.3-1-2.4-1.3-3.2-1.1C47,48,46.5,49,46.4,49.3
				C46.1,50.2,45.3,50.8,44.4,50.8"/>
			<path id="Fill-10" class="st5" d="M13.1,55.2c-0.2,0-0.4,0-0.6-0.1c-0.8-0.4-1.1-1.3-0.7-2l2-4.5c0.4-0.8,1.3-1.1,2-0.8
				c0.8,0.4,1.1,1.3,0.7,2l-2,4.5C14.2,54.8,13.7,55.2,13.1,55.2"/>
			<path id="Fill-12" class="st5" d="M19.1,54.7c-0.2,0-0.4,0-0.6-0.1c-0.8-0.4-1.1-1.3-0.7-2l2-4.5c0.4-0.8,1.3-1.1,2-0.8
				c0.8,0.4,1.1,1.3,0.7,2l-2,4.5C20.2,54.4,19.7,54.7,19.1,54.7"/>
			<path id="Fill-14" class="st5" d="M58.4,51.9c-0.2,0-0.4,0-0.6-0.1c-0.8-0.4-1.1-1.3-0.7-2l2-4.5c0.4-0.8,1.3-1.1,2-0.8
				c0.8,0.4,1.1,1.3,0.7,2l-2,4.5C59.5,51.6,59,51.9,58.4,51.9"/>
			<path id="Fill-16" class="st5" d="M64.4,51.5c-0.2,0-0.4,0-0.6-0.1c-0.8-0.4-1.1-1.3-0.7-2l2-4.5c0.4-0.8,1.3-1.1,2-0.8
				c0.8,0.4,1.1,1.3,0.7,2l-2,4.5C65.5,51.2,65,51.5,64.4,51.5"/>
			<g id="Clip-46">
			</g>
			<text transform="matrix(1 0 0 1 77.6667 39.8976)" class="st4 st6 st7">馒头留学</text>
			<text transform="matrix(1 0 0 1 80.3332 63.564)" class="st4 st8 st9">专业靠谱新留学</text>
		</g>
	</g>
</g>
</svg>
